<?xml version="1.0" encoding="us-ascii" standalone="no"?><svg xmlns="http://www.w3.org/2000/svg" xmlns:xlink="http://www.w3.org/1999/xlink" contentStyleType="text/css" height="710px" preserveAspectRatio="none" style="width:398px;height:710px;background:#FFFFFF;" version="1.1" viewBox="0 0 398 710" width="398px" zoomAndPan="magnify"><defs/><g><text fill="#000000" font-family="sans-serif" font-size="14" font-weight="bold" lengthAdjust="spacing" textLength="157.4375" x="118.7813" y="29.9659">mtu1280 mode in IPv6</text><line style="stroke:#181818;stroke-width:0.5;stroke-dasharray:5.0,5.0;" x1="43" x2="43" y1="96.1358" y2="658.608"/><line style="stroke:#181818;stroke-width:0.5;stroke-dasharray:5.0,5.0;" x1="163.5" x2="163.5" y1="96.1358" y2="658.608"/><line style="stroke:#181818;stroke-width:0.5;stroke-dasharray:5.0,5.0;" x1="329.8125" x2="329.8125" y1="96.1358" y2="658.608"/><rect fill="#E2E2F0" height="33.0679" rx="2.5" ry="2.5" style="stroke:#181818;stroke-width:0.5;" width="76" x="5" y="62.0679"/><text fill="#000000" font-family="sans-serif" font-size="14" lengthAdjust="spacing" textLength="62" x="12" y="84.0339">syndiagd</text><rect fill="#E2E2F0" height="33.0679" rx="2.5" ry="2.5" style="stroke:#181818;stroke-width:0.5;" width="76" x="5" y="657.608"/><text fill="#000000" font-family="sans-serif" font-size="14" lengthAdjust="spacing" textLength="62" x="12" y="679.574">syndiagd</text><text fill="#000000" font-family="sans-serif" font-size="14" lengthAdjust="spacing" textLength="105" x="108.5" y="92.0339">mtu1280 router</text><ellipse cx="164" cy="61.0679" fill="#E2E2F0" rx="12" ry="12" style="stroke:#181818;stroke-width:0.5;"/><polygon fill="#181818" points="160,49.0679,166,44.0679,164,49.0679,166,54.0679,160,49.0679" style="stroke:#181818;stroke-width:1.0;"/><text fill="#000000" font-family="sans-serif" font-size="14" lengthAdjust="spacing" textLength="105" x="108.5" y="672.574">mtu1280 router</text><ellipse cx="164" cy="692.6759" fill="#E2E2F0" rx="12" ry="12" style="stroke:#181818;stroke-width:0.5;"/><polygon fill="#181818" points="160,680.6759,166,675.6759,164,680.6759,166,685.6759,160,680.6759" style="stroke:#181818;stroke-width:1.0;"/><rect fill="#E2E2F0" height="33.0679" rx="2.5" ry="2.5" style="stroke:#181818;stroke-width:0.5;" width="67" x="296.8125" y="62.0679"/><text fill="#000000" font-family="sans-serif" font-size="14" lengthAdjust="spacing" textLength="53" x="303.8125" y="84.0339">syndiag</text><rect fill="#E2E2F0" height="33.0679" rx="2.5" ry="2.5" style="stroke:#181818;stroke-width:0.5;" width="67" x="296.8125" y="657.608"/><text fill="#000000" font-family="sans-serif" font-size="14" lengthAdjust="spacing" textLength="53" x="303.8125" y="679.574">syndiag</text><polygon fill="#181818" points="174.7419,135.2489,165,139.8419,175.222,143.2344,170.9892,139.4817" style="stroke:#181818;stroke-width:1.0;"/><line style="stroke:#181818;stroke-width:1.0;" x1="329.3125" x2="164" y1="129.8419" y2="139.8419"/><text fill="#000000" font-family="sans-serif" font-size="13" lengthAdjust="spacing" textLength="90" x="202.1563" y="124.0328">PSH, len &gt; 1280</text><polygon fill="#181818" points="318.5706,186.9549,328.3125,191.5479,318.0905,194.9405,322.3233,191.1878" style="stroke:#181818;stroke-width:1.0;"/><line style="stroke:#181818;stroke-width:1.0;" x1="164" x2="328.3125" y1="181.5479" y2="191.5479"/><text fill="#000000" font-family="sans-serif" font-size="13" font-weight="bold" lengthAdjust="spacing" textLength="142.3125" x="176" y="175.7389">ICMPv6 packet too big</text><path d="M269,204.5479 L269,231.5479 L391,231.5479 L391,214.5479 L381,204.5479 L269,204.5479 " fill="#FEFFDD" style="stroke:#181818;stroke-width:0.5;"/><path d="M381,204.5479 L381,214.5479 L391,214.5479 L381,204.5479 " fill="#FEFFDD" style="stroke:#181818;stroke-width:0.5;"/><text fill="#000000" font-family="sans-serif" font-size="13" lengthAdjust="spacing" textLength="92" x="284" y="223.4449">PMTU adjusted</text><polygon fill="#181818" points="174.7419,266.3669,165,270.9599,175.222,274.3525,170.9892,270.5998" style="stroke:#181818;stroke-width:1.0;"/><line style="stroke:#181818;stroke-width:1.0;" x1="329.3125" x2="164" y1="260.9599" y2="270.9599"/><text fill="#000000" font-family="sans-serif" font-size="13" lengthAdjust="spacing" textLength="97" x="198.6563" y="255.1509">PSH, len == 1280</text><polygon fill="#181818" points="53.6366,317.8559,44,322.6659,54.2955,325.8287,49.9796,322.1717" style="stroke:#181818;stroke-width:1.0;"/><line style="stroke:#181818;stroke-width:1.0;" x1="163" x2="43" y1="312.6659" y2="322.6659"/><text fill="#000000" font-family="sans-serif" font-size="13" lengthAdjust="spacing" textLength="97" x="55" y="306.8569">PSH, len == 1280</text><polygon fill="#181818" points="174.7419,369.779,165,374.3719,175.222,377.7645,170.9892,374.0118" style="stroke:#181818;stroke-width:1.0;"/><line style="stroke:#181818;stroke-width:1.0;" x1="329.3125" x2="164" y1="364.3719" y2="374.3719"/><text fill="#000000" font-family="sans-serif" font-size="13" lengthAdjust="spacing" textLength="90" x="202.1563" y="358.5629">PSH, len &lt; 1280</text><polygon fill="#181818" points="53.6366,421.2679,44,426.0779,54.2955,429.2407,49.9796,425.5838" style="stroke:#181818;stroke-width:1.0;"/><line style="stroke:#181818;stroke-width:1.0;" x1="163" x2="43" y1="416.0779" y2="426.0779"/><text fill="#000000" font-family="sans-serif" font-size="13" lengthAdjust="spacing" textLength="90" x="58.5" y="410.2689">PSH, len &lt; 1280</text><path d="M9,449.0779 L9,476.0779 L362,476.0779 L362,459.0779 L352,449.0779 L9,449.0779 " fill="#FEFFDD" style="stroke:#181818;stroke-width:0.5;"/><path d="M352,449.0779 L352,459.0779 L362,459.0779 L352,449.0779 " fill="#FEFFDD" style="stroke:#181818;stroke-width:0.5;"/><text fill="#000000" font-family="sans-serif" font-size="13" lengthAdjust="spacing" textLength="96" x="137.9063" y="467.975">request finished</text><polygon fill="#181818" points="152.3634,510.6799,162,515.49,151.7045,518.6528,156.0204,514.9958" style="stroke:#181818;stroke-width:1.0;"/><line style="stroke:#181818;stroke-width:1.0;" x1="43" x2="162" y1="505.49" y2="515.49"/><text fill="#000000" font-family="sans-serif" font-size="13" lengthAdjust="spacing" textLength="97" x="55" y="499.681">PSH, len == 1280</text><polygon fill="#181818" points="318.5706,552.603,328.3125,557.196,318.0905,560.5886,322.3233,556.8359" style="stroke:#181818;stroke-width:1.0;"/><line style="stroke:#181818;stroke-width:1.0;" x1="164" x2="328.3125" y1="547.196" y2="557.196"/><text fill="#000000" font-family="sans-serif" font-size="13" lengthAdjust="spacing" textLength="97" x="198.6563" y="541.387">PSH, len == 1280</text><polygon fill="#181818" points="152.3634,594.092,162,598.902,151.7045,602.0648,156.0204,598.4078" style="stroke:#181818;stroke-width:1.0;"/><line style="stroke:#181818;stroke-width:1.0;" x1="43" x2="162" y1="588.902" y2="598.902"/><text fill="#000000" font-family="sans-serif" font-size="13" lengthAdjust="spacing" textLength="90" x="58.5" y="583.093">PSH, len &lt; 1280</text><polygon fill="#181818" points="318.5706,636.015,328.3125,640.608,318.0905,644.0006,322.3233,640.2479" style="stroke:#181818;stroke-width:1.0;"/><line style="stroke:#181818;stroke-width:1.0;" x1="164" x2="328.3125" y1="630.608" y2="640.608"/><text fill="#000000" font-family="sans-serif" font-size="13" lengthAdjust="spacing" textLength="90" x="202.1563" y="624.799">PSH, len &lt; 1280</text><!--SRC=[VOz1JiCm44NtFiLNLX1HgMM1K9LMQjdGHQHAm06CFKrD7JlOamfkZvEcOcDruuNVl3z_sB0bjDml7f_dQBqc68VT_lmaH3mPryaWMsWwoDuoqmzBQnhNacEez50G8esmKQQJwQ-8lquRsUW2Cc8Zb7SSl4LntH1ydwIHrbbpH5iXQjmjvlVL3Dibzc-l3x3aiCOGajXiFT21bUNkfKvrqKbr8WPxZq_JbALmdWd-J66CgDy_8FLN7vbqFdorkgHlhh3EmAnPtH0dTcaZLV0nBX7ekwV8E1XduZ4LIkvqKdxf_xsPkXcpkY5Ex0y0]--></g></svg>