<?xml version="1.0" encoding="us-ascii" standalone="no"?><svg xmlns="http://www.w3.org/2000/svg" xmlns:xlink="http://www.w3.org/1999/xlink" contentStyleType="text/css" height="645px" preserveAspectRatio="none" style="width:217px;height:645px;background:#FFFFFF;" version="1.1" viewBox="0 0 217 645" width="217px" zoomAndPan="magnify"><defs/><g><line style="stroke:#181818;stroke-width:0.5;stroke-dasharray:5.0,5.0;" x1="60" x2="60" y1="39.0679" y2="607.2461"/><line style="stroke:#181818;stroke-width:0.5;stroke-dasharray:5.0,5.0;" x1="141.5" x2="141.5" y1="39.0679" y2="607.2461"/><rect fill="#E2E2F0" height="33.0679" rx="2.5" ry="2.5" style="stroke:#181818;stroke-width:0.5;" width="76" x="22" y="5"/><text fill="#000000" font-family="sans-serif" font-size="14" lengthAdjust="spacing" textLength="62" x="29" y="26.9659">syndiagd</text><rect fill="#E2E2F0" height="33.0679" rx="2.5" ry="2.5" style="stroke:#181818;stroke-width:0.5;" width="76" x="22" y="606.2461"/><text fill="#000000" font-family="sans-serif" font-size="14" lengthAdjust="spacing" textLength="62" x="29" y="628.2121">syndiagd</text><rect fill="#E2E2F0" height="33.0679" rx="2.5" ry="2.5" style="stroke:#181818;stroke-width:0.5;" width="67" x="108.5" y="5"/><text fill="#000000" font-family="sans-serif" font-size="14" lengthAdjust="spacing" textLength="53" x="115.5" y="26.9659">syndiag</text><rect fill="#E2E2F0" height="33.0679" rx="2.5" ry="2.5" style="stroke:#181818;stroke-width:0.5;" width="67" x="108.5" y="606.2461"/><text fill="#000000" font-family="sans-serif" font-size="14" lengthAdjust="spacing" textLength="53" x="115.5" y="628.2121">syndiag</text><polygon fill="#181818" points="70.4422,77.5928,61,82.7739,71.4107,85.534,66.9559,82.0476" style="stroke:#181818;stroke-width:1.0;"/><line style="stroke:#181818;stroke-width:1.0;" x1="141" x2="60" y1="72.7739" y2="82.7739"/><text fill="#000000" font-family="sans-serif" font-size="13" lengthAdjust="spacing" textLength="24" x="89" y="66.9649">SYN</text><polygon fill="#181818" points="130.5578,129.2988,140,134.4799,129.5893,137.24,134.0441,133.7536" style="stroke:#181818;stroke-width:1.0;"/><line style="stroke:#181818;stroke-width:1.0;" x1="60" x2="140" y1="124.4799" y2="134.4799"/><text fill="#000000" font-family="sans-serif" font-size="13" lengthAdjust="spacing" textLength="54" x="74" y="118.6709">SYN, ACK</text><polygon fill="#181818" points="70.4422,171.0048,61,176.186,71.4107,178.946,66.9559,175.4596" style="stroke:#181818;stroke-width:1.0;"/><line style="stroke:#181818;stroke-width:1.0;" x1="141" x2="60" y1="166.186" y2="176.186"/><text fill="#000000" font-family="sans-serif" font-size="13" lengthAdjust="spacing" textLength="24" x="89" y="160.377">ACK</text><path d="M26,199.186 L26,226.186 L174,226.186 L174,209.186 L164,199.186 L26,199.186 " fill="#FEFFDD" style="stroke:#181818;stroke-width:0.5;"/><path d="M164,199.186 L164,209.186 L174,209.186 L164,199.186 " fill="#FEFFDD" style="stroke:#181818;stroke-width:0.5;"/><text fill="#000000" font-family="sans-serif" font-size="13" lengthAdjust="spacing" textLength="7" x="96.75" y="218.083">1</text><path d="M18,236.892 L18,263.892 L55,263.892 L55,246.892 L45,236.892 L18,236.892 " fill="#FEFFDD" style="stroke:#181818;stroke-width:0.5;"/><path d="M45,236.892 L45,246.892 L55,246.892 L45,236.892 " fill="#FEFFDD" style="stroke:#181818;stroke-width:0.5;"/><text fill="#000000" font-family="sans-serif" font-size="13" lengthAdjust="spacing" textLength="7" x="33" y="255.789">2</text><polygon fill="#181818" points="130.5578,298.1229,140,303.304,129.5893,306.0641,134.0441,302.5777" style="stroke:#181818;stroke-width:1.0;"/><line style="stroke:#181818;stroke-width:1.0;" x1="60" x2="140" y1="293.304" y2="303.304"/><text fill="#000000" font-family="sans-serif" font-size="13" lengthAdjust="spacing" textLength="58" x="72" y="287.495">PSH, URG</text><path d="M147,316.304 L147,343.304 L210,343.304 L210,326.304 L200,316.304 L147,316.304 " fill="#FEFFDD" style="stroke:#181818;stroke-width:0.5;"/><path d="M200,316.304 L200,326.304 L210,326.304 L200,316.304 " fill="#FEFFDD" style="stroke:#181818;stroke-width:0.5;"/><text fill="#000000" font-family="sans-serif" font-size="13" lengthAdjust="spacing" textLength="33" x="162" y="335.201">3, 4, 5</text><polygon fill="#181818" points="70.4422,377.5349,61,382.716,71.4107,385.4761,66.9559,381.9897" style="stroke:#181818;stroke-width:1.0;"/><line style="stroke:#181818;stroke-width:1.0;" x1="141" x2="60" y1="372.716" y2="382.716"/><text fill="#000000" font-family="sans-serif" font-size="13" lengthAdjust="spacing" textLength="21" x="90.5" y="366.907">FIN</text><path d="M5,405.716 L5,432.716 L55,432.716 L55,415.716 L45,405.716 L5,405.716 " fill="#FEFFDD" style="stroke:#181818;stroke-width:0.5;"/><path d="M45,405.716 L45,415.716 L55,415.716 L45,405.716 " fill="#FEFFDD" style="stroke:#181818;stroke-width:0.5;"/><text fill="#000000" font-family="sans-serif" font-size="13" lengthAdjust="spacing" textLength="20" x="20" y="424.6131">6, 7</text><polygon fill="#181818" points="130.5578,466.947,140,472.1281,129.5893,474.8881,134.0441,471.4018" style="stroke:#181818;stroke-width:1.0;"/><line style="stroke:#181818;stroke-width:1.0;" x1="60" x2="140" y1="462.1281" y2="472.1281"/><text fill="#000000" font-family="sans-serif" font-size="13" lengthAdjust="spacing" textLength="25" x="88.5" y="456.3191">PSH</text><path d="M18,485.1281 L18,512.1281 L55,512.1281 L55,495.1281 L45,485.1281 L18,485.1281 " fill="#FEFFDD" style="stroke:#181818;stroke-width:0.5;"/><path d="M45,485.1281 L45,495.1281 L55,495.1281 L45,485.1281 " fill="#FEFFDD" style="stroke:#181818;stroke-width:0.5;"/><text fill="#000000" font-family="sans-serif" font-size="13" lengthAdjust="spacing" textLength="7" x="33" y="504.0251">8</text><polygon fill="#181818" points="130.5578,546.359,140,551.5401,129.5893,554.3002,134.0441,550.8138" style="stroke:#181818;stroke-width:1.0;"/><line style="stroke:#181818;stroke-width:1.0;" x1="60" x2="140" y1="541.5401" y2="551.5401"/><text fill="#000000" font-family="sans-serif" font-size="13" lengthAdjust="spacing" textLength="21" x="90.5" y="535.7311">FIN</text><path d="M26,564.5401 L26,591.5401 L174,591.5401 L174,574.5401 L164,564.5401 L26,564.5401 " fill="#FEFFDD" style="stroke:#181818;stroke-width:0.5;"/><path d="M164,564.5401 L164,574.5401 L174,574.5401 L164,564.5401 " fill="#FEFFDD" style="stroke:#181818;stroke-width:0.5;"/><text fill="#000000" font-family="sans-serif" font-size="13" lengthAdjust="spacing" textLength="7" x="96.75" y="583.4371">9</text><!--SRC=[AyxEp2j8B4hCLKX9JKiipIafIQqeISp9JC_BJSqhKKW64gb5N5p5bNafcOdfAGeQXWQQDheAKBwLGd2a7q9IrmuaZIAfe-3ex8rREqWoBxyaLI6_BBK89foYWr1W297EIKqhWKjRAHZXjZCWs4D78JJ87QAlA3CzemGXQQoZOAAZO8hRFMwUVbWjDDDHCCTh9rPT5hYrm2t2vN5BBW00]--></g></svg>