<?xml version="1.0" encoding="us-ascii" standalone="no"?><svg xmlns="http://www.w3.org/2000/svg" xmlns:xlink="http://www.w3.org/1999/xlink" contentStyleType="text/css" height="706px" preserveAspectRatio="none" style="width:464px;height:706px;background:#FFFFFF;" version="1.1" viewBox="0 0 464 706" width="464px" zoomAndPan="magnify"><defs/><g><text fill="#000000" font-family="sans-serif" font-size="14" font-weight="bold" lengthAdjust="spacing" textLength="157.4375" x="151.7813" y="29.9659">mtu1280 mode in IPv4</text><line style="stroke:#181818;stroke-width:0.5;stroke-dasharray:5.0,5.0;" x1="43" x2="43" y1="96.1358" y2="654.608"/><line style="stroke:#181818;stroke-width:0.5;stroke-dasharray:5.0,5.0;" x1="185.5" x2="185.5" y1="96.1358" y2="654.608"/><line style="stroke:#181818;stroke-width:0.5;stroke-dasharray:5.0,5.0;" x1="395.6563" x2="395.6563" y1="96.1358" y2="654.608"/><rect fill="#E2E2F0" height="33.0679" rx="2.5" ry="2.5" style="stroke:#181818;stroke-width:0.5;" width="76" x="5" y="62.0679"/><text fill="#000000" font-family="sans-serif" font-size="14" lengthAdjust="spacing" textLength="62" x="12" y="84.0339">syndiagd</text><rect fill="#E2E2F0" height="33.0679" rx="2.5" ry="2.5" style="stroke:#181818;stroke-width:0.5;" width="76" x="5" y="653.608"/><text fill="#000000" font-family="sans-serif" font-size="14" lengthAdjust="spacing" textLength="62" x="12" y="675.574">syndiagd</text><text fill="#000000" font-family="sans-serif" font-size="14" lengthAdjust="spacing" textLength="105" x="130.5" y="92.0339">mtu1280 router</text><ellipse cx="186" cy="61.0679" fill="#E2E2F0" rx="12" ry="12" style="stroke:#181818;stroke-width:0.5;"/><polygon fill="#181818" points="182,49.0679,188,44.0679,186,49.0679,188,54.0679,182,49.0679" style="stroke:#181818;stroke-width:1.0;"/><text fill="#000000" font-family="sans-serif" font-size="14" lengthAdjust="spacing" textLength="105" x="130.5" y="668.574">mtu1280 router</text><ellipse cx="186" cy="688.6759" fill="#E2E2F0" rx="12" ry="12" style="stroke:#181818;stroke-width:0.5;"/><polygon fill="#181818" points="182,676.6759,188,671.6759,186,676.6759,188,681.6759,182,676.6759" style="stroke:#181818;stroke-width:1.0;"/><rect fill="#E2E2F0" height="33.0679" rx="2.5" ry="2.5" style="stroke:#181818;stroke-width:0.5;" width="67" x="362.6563" y="62.0679"/><text fill="#000000" font-family="sans-serif" font-size="14" lengthAdjust="spacing" textLength="53" x="369.6563" y="84.0339">syndiag</text><rect fill="#E2E2F0" height="33.0679" rx="2.5" ry="2.5" style="stroke:#181818;stroke-width:0.5;" width="67" x="362.6563" y="653.608"/><text fill="#000000" font-family="sans-serif" font-size="14" lengthAdjust="spacing" textLength="53" x="369.6563" y="675.574">syndiag</text><polygon fill="#181818" points="196.7986,135.3711,187,139.8419,197.1788,143.362,192.9932,139.5567" style="stroke:#181818;stroke-width:1.0;"/><line style="stroke:#181818;stroke-width:1.0;" x1="395.1563" x2="186" y1="129.8419" y2="139.8419"/><text fill="#000000" font-family="sans-serif" font-size="13" lengthAdjust="spacing" textLength="112" x="235.0781" y="124.0328">DF, PSH, len &gt; 1280</text><polygon fill="#181818" points="384.3577,187.0771,394.1563,191.5479,383.9774,195.068,388.163,191.2627" style="stroke:#181818;stroke-width:1.0;"/><line style="stroke:#181818;stroke-width:1.0;" x1="186" x2="394.1563" y1="181.5479" y2="191.5479"/><text fill="#000000" font-family="sans-serif" font-size="13" font-weight="bold" lengthAdjust="spacing" textLength="186.1563" x="198" y="175.7389">ICMP fragmentation required</text><path d="M335,204.5479 L335,231.5479 L457,231.5479 L457,214.5479 L447,204.5479 L335,204.5479 " fill="#FEFFDD" style="stroke:#181818;stroke-width:0.5;"/><path d="M447,204.5479 L447,214.5479 L457,214.5479 L447,204.5479 " fill="#FEFFDD" style="stroke:#181818;stroke-width:0.5;"/><text fill="#000000" font-family="sans-serif" font-size="13" lengthAdjust="spacing" textLength="92" x="350" y="223.4449">PMTU adjusted</text><polygon fill="#181818" points="196.7986,266.4891,187,270.9599,197.1788,274.4801,192.9932,270.6747" style="stroke:#181818;stroke-width:1.0;"/><line style="stroke:#181818;stroke-width:1.0;" x1="395.1563" x2="186" y1="260.9599" y2="270.9599"/><text fill="#000000" font-family="sans-serif" font-size="13" lengthAdjust="spacing" textLength="119" x="231.5781" y="255.1509">DF, PSH, len == 1280</text><polygon fill="#181818" points="53.6966,317.9781,44,322.6659,54.2547,325.9586,49.9854,322.2474" style="stroke:#181818;stroke-width:1.0;"/><line style="stroke:#181818;stroke-width:1.0;" x1="185" x2="43" y1="312.6659" y2="322.6659"/><text fill="#000000" font-family="sans-serif" font-size="13" lengthAdjust="spacing" textLength="119" x="55" y="306.8569">DF, PSH, len == 1280</text><polygon fill="#181818" points="196.7986,369.9012,187,374.3719,197.1788,377.8921,192.9932,374.0868" style="stroke:#181818;stroke-width:1.0;"/><line style="stroke:#181818;stroke-width:1.0;" x1="395.1563" x2="186" y1="364.3719" y2="374.3719"/><text fill="#000000" font-family="sans-serif" font-size="13" lengthAdjust="spacing" textLength="112" x="235.0781" y="358.5629">DF, PSH, len &lt; 1280</text><polygon fill="#181818" points="53.6966,421.3901,44,426.0779,54.2547,429.3706,49.9854,425.6594" style="stroke:#181818;stroke-width:1.0;"/><line style="stroke:#181818;stroke-width:1.0;" x1="185" x2="43" y1="416.0779" y2="426.0779"/><text fill="#000000" font-family="sans-serif" font-size="13" lengthAdjust="spacing" textLength="112" x="58.5" y="410.2689">DF, PSH, len &lt; 1280</text><path d="M9,449.0779 L9,476.0779 L428,476.0779 L428,459.0779 L418,449.0779 L9,449.0779 " fill="#FEFFDD" style="stroke:#181818;stroke-width:0.5;"/><path d="M418,449.0779 L418,459.0779 L428,459.0779 L418,449.0779 " fill="#FEFFDD" style="stroke:#181818;stroke-width:0.5;"/><text fill="#000000" font-family="sans-serif" font-size="13" lengthAdjust="spacing" textLength="96" x="170.8281" y="467.975">request finished</text><polygon fill="#181818" points="174.3034,510.8021,184,515.49,173.7453,518.7826,178.0146,515.0714" style="stroke:#181818;stroke-width:1.0;"/><line style="stroke:#181818;stroke-width:1.0;" x1="43" x2="184" y1="505.49" y2="515.49"/><text fill="#000000" font-family="sans-serif" font-size="13" lengthAdjust="spacing" textLength="90" x="69.5" y="499.681">PSH, len &gt; 1280</text><path d="M127,528.49 L127,555.49 L244,555.49 L244,538.49 L234,528.49 L127,528.49 " fill="#FEFFDD" style="stroke:#181818;stroke-width:0.5;"/><path d="M234,528.49 L234,538.49 L244,538.49 L234,528.49 " fill="#FEFFDD" style="stroke:#181818;stroke-width:0.5;"/><text fill="#000000" font-family="sans-serif" font-size="13" lengthAdjust="spacing" textLength="87" x="142" y="547.387">fragmentation</text><polygon fill="#181818" points="384.3577,590.4312,394.1563,594.902,383.9774,598.4222,388.163,594.6168" style="stroke:#181818;stroke-width:1.0;"/><line style="stroke:#181818;stroke-width:1.0;" x1="186" x2="394.1563" y1="584.902" y2="594.902"/><text fill="#000000" font-family="sans-serif" font-size="13" font-weight="bold" lengthAdjust="spacing" textLength="75.0625" x="229.5469" y="579.093">IP fragment</text><text fill="#000000" font-family="sans-serif" font-size="13" lengthAdjust="spacing" textLength="45" x="307.6094" y="579.093">== 1280</text><polygon fill="#181818" points="384.3577,632.1373,394.1563,636.608,383.9774,640.1282,388.163,636.3229" style="stroke:#181818;stroke-width:1.0;"/><line style="stroke:#181818;stroke-width:1.0;" x1="186" x2="394.1563" y1="626.608" y2="636.608"/><text fill="#000000" font-family="sans-serif" font-size="13" font-weight="bold" lengthAdjust="spacing" textLength="75.0625" x="233.0469" y="620.799">IP fragment</text><text fill="#000000" font-family="sans-serif" font-size="13" lengthAdjust="spacing" textLength="38" x="311.1094" y="620.799">&lt; 1280</text><!--SRC=[XL1DQy904BtlhnXoQXS5BJqKKK5RIZq40cr_m92TfAF9hjsTIFllkuaHMp7qieTz7_FU4vQAe9PcUlSmWTeP0hQmoGxtIeKTsprwhC5GWKqbGb-25PUs9YkGnuUyKf4YdFCUuryIlgrXB4q2662bScV5kmgIqmNlcYZgqFIgieFMIgLmCvtSpiUmdi7JymYorvSHL6HX2QrHnCVBbj7YMcyUqmmAZsMR38MT1K-V3NioMYlhXC0ToBVaB7rx1pJR9WYPuJEBnV7EwaH81mY33lD_37hyc0vpxqAOTQaf21HiENp4W57V5utwon7EnIBuf_xbFkTrjFuLVPZJf_i1]--></g></svg>